<svg width="577" height="224" viewBox="0 0 577 224" fill="none" xmlns="http://www.w3.org/2000/svg">
<path d="M0.821094 184.793V143.393L95.6211 7.79296H152.921V140.393H177.521V184.793H152.921V223.793H101.621V184.793H0.821094ZM105.221 64.193L54.8211 140.393H105.221V64.193ZM202.648 111.293C202.648 76.893 209.248 49.793 222.448 29.993C235.848 10.193 257.348 0.292949 286.948 0.292949C316.548 0.292949 337.948 10.193 351.148 29.993C364.548 49.793 371.248 76.893 371.248 111.293C371.248 146.093 364.548 173.393 351.148 193.193C337.948 212.993 316.548 222.893 286.948 222.893C257.348 222.893 235.848 212.993 222.448 193.193C209.248 173.393 202.648 146.093 202.648 111.293ZM320.848 111.293C320.848 91.093 318.648 75.593 314.248 64.793C309.848 53.793 300.748 48.293 286.948 48.293C273.148 48.293 264.048 53.793 259.648 64.793C255.248 75.593 253.048 91.093 253.048 111.293C253.048 124.893 253.848 136.193 255.448 145.193C257.048 153.993 260.248 161.193 265.048 166.793C270.048 172.193 277.348 174.893 286.948 174.893C296.548 174.893 303.748 172.193 308.548 166.793C313.548 161.193 316.848 153.993 318.448 145.193C320.048 136.193 320.848 124.893 320.848 111.293ZM399.552 184.793V143.393L494.352 7.79296H551.652V140.393H576.252V184.793H551.652V223.793H500.352V184.793H399.552ZM503.952 64.193L453.552 140.393H503.952V64.193Z" fill="#0053B4"/>
</svg>
