<svg width="805" height="692" viewBox="0 0 805 692" fill="none" xmlns="http://www.w3.org/2000/svg">
<g clip-path="url(#clip0_1137_50207)">
<path d="M955.789 656.688C958.722 726.386 981.252 790.002 981.813 855.715C982.072 921.014 960.363 988.409 913.302 1019.69C865.939 1050.55 793.883 1045.45 726.545 1040.07C659.207 1034.7 595.927 1028.89 546.829 996.174C497.375 963.716 461.8 903.93 406.734 848.877C351.668 793.824 276.453 743.35 243.988 678.108C211.523 612.865 221.149 532.7 270.266 492.287C319.33 452.549 407.582 452.149 466.173 414.972C524.408 378.056 553.339 304.101 604.603 274.833C655.867 245.564 729.82 260.72 796.919 294.883C864.018 329.045 924.618 381.953 946.739 446.504C969.163 511.469 952.5 587.25 955.789 656.688Z" fill="#00234C" fill-opacity="0.2"/>
<g clip-path="url(#clip1_1137_50207)">
<rect x="490" y="667" width="37" height="37" rx="18.5" fill="#858585"/>
<circle cx="513.5" cy="688.5" r="18.5" fill="#404040"/>
<g clip-path="url(#clip2_1137_50207)">
<rect x="490" y="667" width="37" height="37" rx="18.5" fill="#858585"/>
<circle cx="513.5" cy="688.5" r="18.5" fill="#404040"/>
</g>
</g>
<g clip-path="url(#clip3_1137_50207)">
<rect x="522" y="453" width="37" height="37" rx="18.5" fill="#858585"/>
<circle cx="545.5" cy="474.5" r="18.5" fill="#404040"/>
</g>
<g clip-path="url(#clip4_1137_50207)">
<rect x="683" y="353" width="37" height="37" rx="18.5" fill="#858585"/>
<circle cx="706.5" cy="374.5" r="18.5" fill="#404040"/>
<g clip-path="url(#clip5_1137_50207)">
<rect x="683" y="353" width="37" height="37" rx="18.5" fill="#858585"/>
<circle cx="706.5" cy="374.5" r="18.5" fill="#404040"/>
</g>
</g>
<g clip-path="url(#clip6_1137_50207)">
<rect x="313" y="575" width="37" height="37" rx="18.5" fill="#858585"/>
<circle cx="336.5" cy="596.5" r="18.5" fill="#404040"/>
</g>
<circle cx="476.5" cy="215.5" r="2.5" fill="white"/>
</g>
<defs>
<clipPath id="clip0_1137_50207">
<rect width="1026" height="882" fill="white" transform="translate(711.642) rotate(53.7893)"/>
</clipPath>
<clipPath id="clip1_1137_50207">
<rect x="490" y="667" width="37" height="37" rx="18.5" fill="white"/>
</clipPath>
<clipPath id="clip2_1137_50207">
<rect x="490" y="667" width="37" height="37" rx="18.5" fill="white"/>
</clipPath>
<clipPath id="clip3_1137_50207">
<rect x="522" y="453" width="37" height="37" rx="18.5" fill="white"/>
</clipPath>
<clipPath id="clip4_1137_50207">
<rect x="683" y="353" width="37" height="37" rx="18.5" fill="white"/>
</clipPath>
<clipPath id="clip5_1137_50207">
<rect x="683" y="353" width="37" height="37" rx="18.5" fill="white"/>
</clipPath>
<clipPath id="clip6_1137_50207">
<rect x="313" y="575" width="37" height="37" rx="18.5" fill="white"/>
</clipPath>
</defs>
</svg>
