<svg width="1400" height="1000" viewBox="0 0 1400 1000" fill="none" xmlns="http://www.w3.org/2000/svg">
<circle cx="20.5" cy="573.5" r="2.5" fill="#4169E1"/>
<circle cx="402.5" cy="318.5" r="2.5" fill="#4169E1"/>
<circle cx="955.5" cy="190.5" r="2.5" fill="#4169E1"/>
<circle cx="1189.5" cy="338.5" r="2.5" fill="#4169E1"/>
<circle cx="376.5" cy="819.5" r="2.5" fill="#4169E1"/>
<circle cx="190.5" cy="13.5" r="2.5" fill="#4169E1"/>
<circle cx="505.5" cy="193.5" r="2.5" fill="#4169E1"/>
<circle cx="75.5" cy="711.5" r="2.5" fill="#4169E1"/>
<circle cx="407.5" cy="343.5" r="2.5" fill="#4169E1"/>
<circle cx="294.5" cy="489.5" r="2.5" fill="#4169E1"/>
<circle cx="561.5" cy="827.5" r="2.5" fill="#4169E1"/>
<circle cx="347.5" cy="151.5" r="2.5" fill="#4169E1"/>
<circle cx="1167.5" cy="169.5" r="2.5" fill="#4169E1"/>
<circle cx="20.5" cy="398.5" r="2.5" fill="#4169E1"/>
<circle cx="719.5" cy="218.5" r="2.5" fill="#4169E1"/>
<circle cx="585.5" cy="976.5" r="2.5" fill="#4169E1"/>
<circle cx="240.5" cy="403.5" r="2.5" fill="#4169E1"/>
<circle cx="274.5" cy="294.5" r="2.5" fill="#4169E1"/>
<circle cx="399.5" cy="976.5" r="2.5" fill="#4169E1"/>
<circle cx="142.5" cy="129.5" r="2.5" fill="#4169E1"/>
<circle cx="1074.5" cy="299.5" r="2.5" fill="#4169E1"/>
<circle cx="124.5" cy="367.5" r="2.5" fill="#4169E1"/>
<circle cx="195.5" cy="662.5" r="2.5" fill="#4169E1"/>
<path d="M700 493.625C698.739 493.625 697.507 493.999 696.458 494.699C695.41 495.4 694.593 496.396 694.11 497.56C693.628 498.725 693.502 500.007 693.747 501.244C693.993 502.48 694.601 503.616 695.492 504.508C696.384 505.399 697.52 506.007 698.756 506.253C699.993 506.498 701.275 506.372 702.44 505.89C703.604 505.407 704.6 504.59 705.301 503.542C706.001 502.493 706.375 501.261 706.375 500C706.373 498.31 705.701 496.689 704.506 495.494C703.311 494.299 701.69 493.627 700 493.625ZM700 505.625C698.887 505.625 697.8 505.295 696.875 504.677C695.95 504.059 695.229 503.18 694.803 502.153C694.377 501.125 694.266 499.994 694.483 498.903C694.7 497.811 695.236 496.809 696.023 496.023C696.809 495.236 697.811 494.7 698.903 494.483C699.994 494.266 701.125 494.377 702.153 494.803C703.18 495.229 704.059 495.95 704.677 496.875C705.295 497.8 705.625 498.887 705.625 500C705.623 501.491 705.03 502.921 703.976 503.976C702.921 505.03 701.491 505.623 700 505.625ZM703.529 498.942C703.507 498.986 703.476 499.025 703.438 499.057C703.401 499.088 703.357 499.113 703.31 499.128C703.264 499.143 703.214 499.148 703.165 499.144C703.116 499.14 703.068 499.127 703.024 499.104C702.087 498.624 701.05 498.374 699.997 498.375C698.944 498.376 697.907 498.626 696.97 499.107C696.882 499.153 696.779 499.161 696.684 499.131C696.589 499.1 696.511 499.034 696.465 498.945C696.42 498.857 696.411 498.754 696.441 498.659C696.472 498.565 696.538 498.486 696.627 498.44C697.671 497.905 698.827 497.625 700 497.625C701.171 497.621 702.326 497.9 703.367 498.437C703.411 498.46 703.45 498.49 703.482 498.528C703.514 498.566 703.538 498.609 703.553 498.656C703.568 498.703 703.574 498.752 703.57 498.801C703.566 498.85 703.552 498.898 703.529 498.942V498.942ZM702.603 500.715C702.58 500.759 702.549 500.798 702.512 500.83C702.474 500.862 702.431 500.886 702.384 500.901C702.337 500.917 702.288 500.922 702.239 500.919C702.19 500.915 702.142 500.901 702.098 500.879C701.447 500.547 700.727 500.375 699.997 500.375C699.267 500.376 698.547 500.549 697.897 500.881C697.808 500.927 697.705 500.935 697.611 500.904C697.516 500.874 697.437 500.807 697.392 500.719C697.347 500.63 697.338 500.527 697.369 500.432C697.399 500.338 697.466 500.259 697.555 500.214C698.311 499.827 699.148 499.626 699.997 499.625C700.845 499.624 701.682 499.825 702.439 500.211C702.527 500.256 702.594 500.334 702.625 500.429C702.656 500.524 702.648 500.626 702.603 500.715V500.715ZM701.677 502.485C701.633 502.574 701.555 502.642 701.46 502.673C701.366 502.704 701.263 502.697 701.174 502.652C700.809 502.47 700.406 502.375 699.997 502.375C699.589 502.375 699.186 502.471 698.821 502.655C698.732 502.7 698.629 502.707 698.535 502.676C698.44 502.645 698.362 502.578 698.317 502.489C698.273 502.4 698.265 502.297 698.296 502.203C698.327 502.108 698.395 502.03 698.484 501.985C698.953 501.749 699.471 501.626 699.996 501.625C700.522 501.624 701.04 501.747 701.51 501.982C701.554 502.004 701.593 502.034 701.626 502.072C701.658 502.109 701.682 502.152 701.698 502.199C701.713 502.246 701.72 502.295 701.716 502.344C701.713 502.393 701.699 502.441 701.677 502.485Z" fill="#4169E1"/>
</svg>
